<svg xmlns="http://www.w3.org/2000/svg" width="17" height="16" viewBox="0 0 17 16" fill="none">
  <path d="M15.2662 8.57343C15.2662 10.1001 14.4795 11.4534 13.2662 12.3068L12.3729 14.2734C12.1662 14.7201 11.5662 14.8068 11.2529 14.4268L10.2662 13.2401C9.0262 13.2401 7.8862 12.8201 7.01953 12.1201L7.41953 11.6468C10.4995 11.4134 12.9329 8.97343 12.9329 6.00009C12.9329 5.49343 12.8595 4.99343 12.7262 4.51343C14.2395 5.31343 15.2662 6.83343 15.2662 8.57343Z" fill="#F27270"/>
  <path d="M11.4669 4.04659C10.6869 2.44659 8.94693 1.33325 6.93359 1.33325C4.17359 1.33325 1.93359 3.41992 1.93359 5.99992C1.93359 7.52659 2.72026 8.87992 3.93359 9.73325L4.82693 11.6999C5.03359 12.1466 5.63359 12.2266 5.94693 11.8533L6.31359 11.4133L6.93359 10.6666C9.69359 10.6666 11.9336 8.57992 11.9336 5.99992C11.9336 5.29992 11.7669 4.63992 11.4669 4.04659ZM8.60026 6.49992H5.26693C4.99359 6.49992 4.76693 6.27325 4.76693 5.99992C4.76693 5.72659 4.99359 5.49992 5.26693 5.49992H8.60026C8.87359 5.49992 9.10026 5.72659 9.10026 5.99992C9.10026 6.27325 8.87359 6.49992 8.60026 6.49992Z" fill="#F27270"/>
</svg>