<svg width="18" height="19" viewBox="0 0 18 19" fill="none" xmlns="http://www.w3.org/2000/svg">
<path d="M8.2575 15.515C10.0497 15.515 11.7685 14.8031 13.0358 13.5358C14.3031 12.2685 15.015 10.5497 15.015 8.7575C15.015 6.9653 14.3031 5.2465 13.0358 3.97923C11.7685 2.71195 10.0497 2 8.2575 2C6.4653 2 4.7465 2.71195 3.47923 3.97923C2.21195 5.2465 1.5 6.9653 1.5 8.7575C1.5 10.5497 2.21195 12.2685 3.47923 13.5358C4.7465 14.8031 6.4653 15.515 8.2575 15.515ZM16.4925 14.7125C16.245 14.255 15.72 14 15.015 14C14.4825 14 14.025 14.2175 13.755 14.5925C13.485 14.9675 13.425 15.47 13.59 15.9725C13.9125 16.9475 14.475 17.165 14.7825 17.2025C14.8275 17.21 14.8725 17.21 14.925 17.21C15.255 17.21 15.765 17.0675 16.26 16.325C16.6575 15.7475 16.7325 15.17 16.4925 14.7125Z" fill="currentColor"/>
</svg>
