<svg width="22" height="22" viewBox="0 0 22 22" fill="none" xmlns="http://www.w3.org/2000/svg">
<mask id="mask0_229_16054" style="mask-type:alpha" maskUnits="userSpaceOnUse" x="0" y="0" width="22" height="22">
<path d="M10.9086 5.34578C10.7169 5.34578 10.5273 5.35556 10.3405 5.37469C10.1537 5.39383 9.96946 5.42218 9.78838 5.45939C9.6073 5.49661 9.42943 5.54271 9.25513 5.59711L8.74351 5.78496L8.25641 6.02016L7.79677 6.29985L7.36729 6.62109L6.97097 6.98109L6.61063 7.37705L6.28904 7.80605L6.009 8.26527L5.77367 8.75181C5.70293 8.91822 5.64 9.08884 5.58553 9.263C5.53107 9.43716 5.48497 9.61496 5.44767 9.79584C5.41039 9.97671 5.38203 10.1607 5.36282 10.3474C5.34363 10.5341 5.33398 10.7235 5.33398 10.9149C5.33398 11.1064 5.34376 11.2958 5.36282 11.4825C5.38179 11.6677 5.4101 11.8518 5.44767 12.0341C5.48497 12.2157 5.53107 12.3928 5.58553 12.5669C5.64 12.7411 5.70285 12.9116 5.77367 13.0781L6.009 13.5647L6.28904 14.0238L6.61063 14.4529L6.97097 14.8489L7.36729 15.2089L7.79677 15.5301L8.25641 15.8097L8.74351 16.045L9.25513 16.2328L9.78838 16.3706C9.97087 16.4081 10.1551 16.4364 10.3405 16.4554C10.5292 16.4746 10.7189 16.4843 10.9086 16.4841C11.1003 16.4841 11.2899 16.4744 11.4766 16.4554C11.662 16.4364 11.8462 16.4081 12.0287 16.3706L12.5621 16.2328L13.0737 16.045L13.5607 15.8097L14.0204 15.5301L14.4499 15.2089L14.8463 14.8489L15.2067 14.4529L15.5282 14.0238L15.8083 13.5647L16.0437 13.0781L16.2317 12.5669C16.2862 12.3928 16.3323 12.215 16.3696 12.0341L16.4544 11.4824C16.4736 11.2957 16.4833 11.1064 16.4833 10.9149C16.4833 10.7234 16.4736 10.534 16.4544 10.3473C16.4354 10.1622 16.4071 9.97807 16.3696 9.79577C16.3323 9.6142 16.2862 9.43716 16.2317 9.26293L16.0437 8.75175L15.8083 8.2652L15.5282 7.80597L15.2067 7.37698L14.8463 6.98101L14.4499 6.62102L14.0204 6.29979L13.5607 6.0201L13.0737 5.7849L12.5621 5.59704L12.0287 5.45933L11.4766 5.37462C11.2879 5.35535 11.0983 5.34576 10.9086 5.34578ZM10.9086 7.26804C11.0353 7.26804 11.1604 7.27433 11.2836 7.28675L11.6467 7.34172L11.9975 7.43109L12.3334 7.55311L12.6528 7.70605L12.9531 7.88796L13.2338 8.09726L13.4926 8.33203L13.7276 8.59056L13.9371 8.87102L14.1192 9.17172L14.2722 9.49087C14.3181 9.60009 14.3589 9.71204 14.3944 9.8265C14.4298 9.94095 14.4597 10.0579 14.4838 10.1771C14.5079 10.2962 14.5257 10.4174 14.5387 10.5406L14.5574 10.9153C14.5574 11.0419 14.5512 11.1669 14.5387 11.2901C14.5263 11.4133 14.508 11.5345 14.4838 11.6536C14.4595 11.7726 14.4296 11.8896 14.3944 12.0041L14.2722 12.3398L14.1192 12.6589L13.9371 12.9595L13.7276 13.2401L13.4926 13.4986L13.2338 13.7334L12.9531 13.9427L12.6528 14.1246L12.3334 14.2775L11.9975 14.3995L11.6467 14.4889L11.2836 14.5438C11.159 14.5563 11.0338 14.5625 10.9085 14.5625C10.7832 14.5625 10.658 14.5563 10.5334 14.5438L10.1702 14.4889C10.051 14.4648 9.93397 14.4349 9.81938 14.3995L9.48348 14.2775L9.16413 14.1246L8.86384 13.9427L8.58311 13.7334L8.32429 13.4986L8.08931 13.2401L7.8798 12.9595L7.69767 12.6589L7.54473 12.3398L7.42252 12.0041L7.33313 11.6536L7.27818 11.2901C7.26568 11.1655 7.25943 11.0405 7.25946 10.9153C7.25943 10.7901 7.26568 10.6651 7.27818 10.5406C7.29054 10.4174 7.3089 10.2961 7.33313 10.1771C7.35713 10.0588 7.38698 9.94183 7.4226 9.82656L7.54481 9.49093L7.69775 9.17179L7.87987 8.87109L8.08937 8.59063L8.32437 8.33211L8.58317 8.09732L8.8639 7.88803L9.16419 7.70611L9.48354 7.55317C9.59346 7.50701 9.7056 7.46629 9.81952 7.43117L10.1704 7.34178C10.2896 7.31762 10.411 7.29918 10.5335 7.28683C10.6582 7.27434 10.7833 7.26803 10.9086 7.26804Z" fill="url(#paint0_radial_229_16054)"/>
<path d="M16.7093 3.76123C16.6651 3.76123 16.6209 3.76347 16.5768 3.76794C16.5328 3.77239 16.489 3.77905 16.4456 3.7879C16.4023 3.79676 16.3593 3.80778 16.3171 3.82093C16.2747 3.8341 16.2332 3.84939 16.1923 3.86674C16.1516 3.88412 16.1118 3.90354 16.0729 3.92492C16.034 3.94626 15.9963 3.96954 15.9598 3.99469C15.9232 4.01985 15.8879 4.04684 15.8541 4.07556C15.8202 4.10424 15.7878 4.13461 15.757 4.16655C15.7262 4.19851 15.697 4.23201 15.6695 4.2669C15.6419 4.30181 15.6162 4.33806 15.5923 4.37556C15.5683 4.41303 15.5464 4.45167 15.5263 4.49135C15.5063 4.53106 15.4881 4.57175 15.4721 4.61329C15.456 4.65479 15.4421 4.69711 15.4301 4.74002C15.4183 4.78295 15.4086 4.82644 15.4012 4.87034C15.3936 4.91423 15.3883 4.95846 15.3852 5.00289C15.3829 5.03435 15.3818 5.0659 15.3818 5.09744C15.3818 5.14201 15.384 5.18655 15.3885 5.2309C15.3929 5.27522 15.3995 5.31929 15.4083 5.36295C15.4171 5.40661 15.428 5.4498 15.441 5.49235C15.4542 5.53492 15.4693 5.5768 15.4866 5.61784C15.5038 5.6589 15.5231 5.69906 15.5444 5.73817C15.5656 5.77727 15.5888 5.81529 15.6137 5.85207C15.6387 5.88883 15.6655 5.92429 15.694 5.95835C15.7226 5.99245 15.7527 6.02508 15.7845 6.05613C15.8163 6.08716 15.8494 6.11658 15.8843 6.14426C15.9189 6.17197 15.955 6.1979 15.9922 6.22198C16.0294 6.24607 16.0679 6.26826 16.1072 6.28847C16.1468 6.30869 16.1872 6.32692 16.2284 6.34307C16.2697 6.35922 16.3116 6.37327 16.3543 6.38519C16.397 6.39708 16.4401 6.40683 16.4837 6.41437C16.5273 6.42196 16.5714 6.42734 16.6154 6.43051C16.6468 6.43275 16.6781 6.43385 16.7094 6.43387C16.7536 6.43387 16.798 6.43166 16.842 6.42722C16.8859 6.42277 16.9298 6.41611 16.9731 6.40726C17.0166 6.39842 17.0594 6.38738 17.1018 6.37423C17.144 6.36106 17.1857 6.34577 17.2264 6.32842C17.2671 6.31105 17.3071 6.29166 17.3458 6.2703C17.3847 6.24894 17.4224 6.22563 17.4591 6.20047C17.4956 6.17533 17.5308 6.14837 17.5647 6.11968C17.5985 6.09096 17.6309 6.06058 17.6618 6.02861C17.6926 5.99665 17.7219 5.96315 17.7493 5.92826C17.7768 5.89335 17.8025 5.8571 17.8265 5.8196C17.8504 5.78212 17.8725 5.74344 17.8925 5.70375C17.9126 5.66403 17.9308 5.62334 17.9468 5.58181C17.9629 5.54029 17.9768 5.49799 17.9886 5.45506C18.0004 5.41215 18.0101 5.36866 18.0177 5.32476C18.0252 5.28087 18.0305 5.23662 18.0336 5.19221C18.0358 5.16074 18.037 5.1292 18.037 5.09766C18.037 5.0531 18.0348 5.00858 18.0304 4.96426C18.026 4.91994 18.0193 4.87587 18.0105 4.83221C18.0018 4.78855 17.9907 4.74536 17.9777 4.70281C17.9645 4.66024 17.9494 4.61836 17.9321 4.57732C17.9149 4.53626 17.8956 4.4961 17.8745 4.45699C17.8533 4.41789 17.8301 4.37987 17.8051 4.34309C17.78 4.3063 17.7532 4.27082 17.7247 4.23673C17.6961 4.20265 17.666 4.17002 17.6344 4.13897C17.6026 4.10794 17.5693 4.07852 17.5346 4.05083C17.4999 4.02315 17.4639 3.99723 17.4267 3.97318C17.3894 3.94909 17.351 3.9269 17.3115 3.90669C17.272 3.88647 17.2315 3.86824 17.1904 3.85209C17.1492 3.83594 17.1071 3.82189 17.0644 3.80997C17.0219 3.79805 16.9786 3.78828 16.935 3.78071C16.8914 3.77316 16.8475 3.76779 16.8033 3.76465C16.772 3.76241 16.7406 3.76123 16.7093 3.76123Z" fill="url(#paint1_radial_229_16054)"/>
<path d="M9.85162 0.0197344C9.24531 0.0187566 8.70424 0.0212704 8.21819 0.0281141L6.91508 0.0630314C6.52903 0.0797915 6.18796 0.101648 5.88181 0.129931C5.72873 0.144038 5.58432 0.15982 5.44744 0.177209C5.31718 0.193626 5.18729 0.212742 5.05783 0.234544C4.93457 0.255495 4.81759 0.27812 4.70544 0.302701C4.5933 0.327284 4.48616 0.353821 4.3828 0.382313C4.28177 0.410175 4.18151 0.440822 4.08218 0.474216C3.98482 0.507038 3.88985 0.541816 3.79605 0.578968C3.60848 0.653272 3.42552 0.736652 3.2371 0.830091C3.09212 0.902021 2.95818 0.974857 2.83095 1.05196C2.70371 1.12905 2.58317 1.21048 2.46515 1.29917C2.34361 1.39095 2.22646 1.48841 2.1141 1.59122C1.99663 1.6982 1.87667 1.81587 1.752 1.94738C1.59537 2.1117 1.45926 2.26491 1.33845 2.41526C1.27804 2.4904 1.22147 2.56472 1.16819 2.63944C1.1155 2.71307 1.06512 2.78835 1.01714 2.86513C0.969652 2.94126 0.924678 3.01878 0.881659 3.09853C0.837971 3.17965 0.796681 3.26205 0.757843 3.34559C0.678372 3.51627 0.604208 3.70008 0.530183 3.90526C0.475267 4.05693 0.426091 4.21064 0.382762 4.36601C0.338558 4.52483 0.299241 4.69097 0.264183 4.87064C0.229127 5.05033 0.198539 5.24356 0.171652 5.45725C0.14268 5.69149 0.119535 5.92642 0.102237 6.16182C0.0826839 6.42061 0.0664824 6.70541 0.0532138 7.02238L0.0217884 8.07633L0.00488838 9.36107L0 10.914L0.0143161 13.1722L0.0590101 14.8831L0.0934384 15.5514L0.136457 16.1053C0.150246 16.2546 0.1675 16.4034 0.188204 16.5519C0.207059 16.6837 0.227312 16.7991 0.2491 16.899C0.29331 17.102 0.345588 17.3032 0.405808 17.5021C0.463468 17.6925 0.529408 17.8802 0.603439 18.0649C0.676207 18.2458 0.755817 18.4202 0.842413 18.5881C0.929008 18.756 1.02258 18.9173 1.12315 19.0724C1.22371 19.2272 1.33125 19.3759 1.44606 19.5182C1.56074 19.6605 1.68272 19.7966 1.81151 19.9263C1.94049 20.0562 2.07653 20.1797 2.2199 20.2972C2.36496 20.416 2.51576 20.5277 2.67173 20.6317C2.81649 20.7284 2.95973 20.8172 3.10401 20.8984C3.24827 20.9799 3.39381 21.0536 3.5434 21.1208C3.69298 21.1879 3.84634 21.2483 4.00655 21.3026C4.16674 21.357 4.33365 21.4053 4.51005 21.4481C4.68645 21.4911 4.87318 21.5286 5.07082 21.5615C5.26845 21.5943 5.4797 21.6225 5.70541 21.6467C5.93111 21.6709 6.1719 21.6909 6.43064 21.7077C6.68937 21.7245 6.96591 21.7378 7.26306 21.7486C7.72209 21.7652 8.41693 21.7749 9.21822 21.7787L11.8122 21.7734L14.2686 21.7391L15.2026 21.7127L15.811 21.6815C15.9416 21.6708 16.0694 21.6582 16.1927 21.6435C16.3161 21.6289 16.4377 21.6121 16.5562 21.5928C16.6746 21.5738 16.7904 21.5524 16.9041 21.5286C17.0166 21.5052 17.1284 21.479 17.2395 21.4502C17.3496 21.4222 17.4581 21.3904 17.5656 21.3567C17.6729 21.3231 17.7794 21.2866 17.885 21.2474C17.9913 21.208 18.0965 21.1661 18.2008 21.1217C18.3057 21.0769 18.4105 21.0292 18.5157 20.9785C18.6772 20.9007 18.8072 20.8358 18.9214 20.7725C19.0288 20.7136 19.1322 20.6478 19.2311 20.5753C19.3286 20.5035 19.4255 20.4218 19.5372 20.3188C19.6489 20.2159 19.7756 20.0919 19.9323 19.9351C20.0702 19.7973 20.1863 19.6776 20.2865 19.5687C20.3867 19.4599 20.4712 19.3619 20.5452 19.2675C20.6158 19.1779 20.6815 19.0846 20.7422 18.988C20.8014 18.8937 20.8558 18.7958 20.9113 18.6872C20.9948 18.5239 21.0691 18.3725 21.1356 18.2264C21.2002 18.0858 21.2593 17.9425 21.3126 17.7971C21.3651 17.6529 21.4107 17.5062 21.449 17.3575C21.4883 17.2046 21.5222 17.0431 21.5516 16.866C21.5808 16.6889 21.6056 16.4962 21.6271 16.2809C21.6486 16.0658 21.6669 15.8278 21.683 15.5606L21.7257 14.6635L21.7622 13.5477L21.7883 12.3047L21.7983 11.0049L21.775 8.4521L21.7438 7.3087L21.7013 6.32697L21.6482 5.56158C21.6289 5.34859 21.6081 5.18085 21.5861 5.06743C21.5616 4.94212 21.5343 4.8174 21.5042 4.69333C21.4748 4.57262 21.4426 4.45263 21.4075 4.33348C21.3733 4.21739 21.336 4.10219 21.2959 3.988C21.2562 3.87523 21.2142 3.76481 21.1701 3.65678C21.1262 3.54875 21.0785 3.44323 21.029 3.33995C20.9794 3.23666 20.9275 3.13589 20.873 3.03741C20.8183 2.93896 20.7615 2.84294 20.702 2.74928C20.6427 2.65564 20.5808 2.56435 20.5163 2.47552C20.4523 2.38698 20.3854 2.30047 20.3159 2.21609C20.2467 2.13219 20.1749 2.05049 20.1006 1.97111C20.0264 1.89185 19.9497 1.81495 19.8707 1.74053C19.7915 1.66608 19.7101 1.59401 19.626 1.52431C19.5416 1.45439 19.4551 1.38711 19.3664 1.32256C19.277 1.25736 19.1855 1.1949 19.0921 1.13527C18.9975 1.07479 18.9012 1.01713 18.8031 0.962358C18.7035 0.906673 18.6021 0.853855 18.4995 0.803974C18.3289 0.72108 18.1711 0.647546 18.0164 0.582321C17.8641 0.517588 17.709 0.460095 17.5514 0.410039C17.3929 0.360106 17.2279 0.317299 17.0464 0.280356C16.8647 0.243413 16.6667 0.212617 16.4427 0.186428C16.2186 0.160241 15.9684 0.139081 15.6821 0.121483C15.396 0.103885 15.0741 0.0900566 14.7066 0.0788831L13.4575 0.0509498L11.8767 0.032304L9.85232 0.0198729L9.85162 0.0197344ZM10.903 1.94032L13.8223 1.95694L14.9236 1.97817C15.2268 1.98669 15.4583 1.99668 15.5939 2.0082C15.7707 2.02308 15.9389 2.04171 16.1 2.06407C16.2544 2.0854 16.4082 2.11192 16.5608 2.14361C16.7074 2.17434 16.8473 2.20925 16.9813 2.24864C17.1151 2.28802 17.243 2.33217 17.3656 2.38097C17.4884 2.42979 17.6057 2.48349 17.7187 2.5423C17.8307 2.60065 17.9395 2.66487 18.0447 2.73469C18.1495 2.80417 18.2505 2.87904 18.3485 2.9597C18.4465 3.04035 18.5416 3.1268 18.6343 3.21927C18.7324 3.31683 18.8228 3.4162 18.9061 3.51871C18.989 3.6206 19.0659 3.72739 19.136 3.83849C19.207 3.95117 19.2709 4.06814 19.3275 4.1887C19.3853 4.31162 19.4373 4.44151 19.4839 4.57957C19.5307 4.71764 19.5721 4.86436 19.6089 5.02114C19.6475 5.18735 19.6798 5.35496 19.7058 5.5236C19.7337 5.70238 19.7576 5.89303 19.7779 6.09715C19.798 6.30127 19.8148 6.51895 19.8286 6.75185C19.8396 6.93865 19.8493 7.18517 19.8575 7.47631L19.8779 8.46901L19.8935 10.9006L19.8758 13.33L19.8545 14.3198L19.825 15.0397C19.8047 15.3769 19.7832 15.6603 19.7574 15.9069C19.7446 16.0302 19.7305 16.1444 19.715 16.2514C19.7005 16.3525 19.6833 16.4532 19.6634 16.5534C19.6453 16.6448 19.6242 16.7357 19.6002 16.8259C19.5773 16.9117 19.5514 16.9969 19.5228 17.0813C19.4939 17.1659 19.4625 17.2496 19.4286 17.3322C19.3928 17.4197 19.3549 17.5062 19.3151 17.5919C19.2797 17.6683 19.2424 17.7428 19.2031 17.8151C19.1642 17.8869 19.1227 17.9571 19.0791 18.026C19.0358 18.0943 18.9904 18.1606 18.9429 18.2248C18.8956 18.2887 18.8461 18.3509 18.7944 18.4113C18.7429 18.4715 18.6891 18.5297 18.6333 18.586C18.5774 18.6421 18.5195 18.6963 18.4594 18.7487C18.3994 18.8011 18.337 18.8515 18.2726 18.8999C18.2082 18.9484 18.1415 18.9948 18.0726 19.0394C18.0036 19.084 17.9326 19.1267 17.8591 19.1676C17.7857 19.2083 17.71 19.2472 17.6322 19.2843C17.5529 19.322 17.4727 19.3573 17.3912 19.3901C17.3072 19.424 17.2223 19.4555 17.1364 19.4847C16.9618 19.5442 16.7777 19.5964 16.5838 19.6414C16.3818 19.6882 16.1779 19.7263 15.9726 19.7558C15.8936 19.7673 15.7123 19.7782 15.4525 19.7882L14.4626 19.8158L11.6559 19.8523L8.71827 19.8568L7.56461 19.8445L6.81549 19.8212L6.2631 19.7823C6.09159 19.7679 5.93208 19.7519 5.78264 19.7336C5.6332 19.7154 5.49402 19.6951 5.36308 19.6721C5.23899 19.6508 5.11566 19.625 4.9933 19.5954C4.88173 19.5683 4.7713 19.5366 4.66229 19.5006C4.55719 19.4656 4.45669 19.4272 4.35893 19.385C4.26115 19.3427 4.16618 19.2964 4.07211 19.2458C3.97804 19.1953 3.88496 19.1405 3.79082 19.0805C3.7198 19.0354 3.65115 18.9897 3.58509 18.9414C3.51903 18.893 3.45519 18.8447 3.39375 18.7941C3.33229 18.7436 3.27328 18.6915 3.21636 18.6379C3.15982 18.5845 3.10523 18.5291 3.05267 18.4718C3.0003 18.4146 2.95022 18.3559 2.90217 18.295C2.85394 18.2339 2.80798 18.1709 2.7644 18.1064C2.72015 18.0409 2.6783 17.9738 2.63891 17.9054C2.59909 17.8362 2.56125 17.7647 2.52528 17.6909C2.48871 17.6158 2.45459 17.5395 2.42298 17.4621C2.39086 17.3833 2.3604 17.302 2.33177 17.2181C2.27451 17.0501 2.22423 16.8713 2.18052 16.6807C2.1368 16.4901 2.0995 16.2876 2.06793 16.0717C2.03637 15.856 2.01095 15.6271 1.9907 15.384C1.97576 15.2049 1.96389 14.9259 1.95481 14.5739L1.93581 13.3222L1.94279 10.1311L1.99775 7.08181L2.03966 6.00748L2.06339 5.65236C2.07164 5.55754 2.08017 5.48728 2.08889 5.44509C2.11766 5.30634 2.14664 5.17721 2.17659 5.05634C2.20458 4.94229 2.23572 4.82905 2.26997 4.71673C2.30251 4.61072 2.3368 4.51141 2.37346 4.41735C2.40881 4.32622 2.44821 4.23672 2.49155 4.14912C2.53387 4.06392 2.57934 3.98234 2.6287 3.90294C2.67808 3.82354 2.73137 3.74652 2.78947 3.66991C2.84757 3.5933 2.91014 3.51767 2.97823 3.44099C3.04632 3.36432 3.11986 3.28687 3.1996 3.20705C3.29255 3.11357 3.38933 3.02399 3.48969 2.93853C3.58447 2.85791 3.68329 2.78217 3.78579 2.71165C3.88656 2.6418 3.98993 2.57966 4.09754 2.52253C4.20516 2.46541 4.31703 2.41379 4.43469 2.36736C4.55236 2.32092 4.67598 2.27937 4.80691 2.24166C4.94448 2.20307 5.08357 2.17015 5.22382 2.14297C5.37131 2.11407 5.52796 2.08885 5.6952 2.06686C5.86246 2.04486 6.04039 2.02587 6.23063 2.00938C6.36332 1.99794 6.59195 1.98773 6.89301 1.97915L7.98871 1.9575L10.9035 1.93968L10.903 1.94032Z" fill="url(#paint2_radial_229_16054)"/>
</mask>
<g mask="url(#mask0_229_16054)">
<rect x="-12" y="-6" width="45" height="33" fill="currentColor"/>
</g>
<defs>
<radialGradient id="paint0_radial_229_16054" cx="0" cy="0" r="1" gradientUnits="userSpaceOnUse" gradientTransform="translate(3.47268 23.3649) rotate(-9.53101) scale(46.0706 27.9645)">
<stop stop-color="#FED576"/>
<stop offset="0.263" stop-color="#F47133"/>
<stop offset="0.609" stop-color="#BC3081"/>
<stop offset="1" stop-color="#4C63D2"/>
</radialGradient>
<radialGradient id="paint1_radial_229_16054" cx="0" cy="0" r="1" gradientUnits="userSpaceOnUse" gradientTransform="translate(3.47273 23.3646) rotate(-9.53102) scale(46.0706 27.9645)">
<stop stop-color="#FED576"/>
<stop offset="0.263" stop-color="#F47133"/>
<stop offset="0.609" stop-color="#BC3081"/>
<stop offset="1" stop-color="#4C63D2"/>
</radialGradient>
<radialGradient id="paint2_radial_229_16054" cx="0" cy="0" r="1" gradientUnits="userSpaceOnUse" gradientTransform="translate(3.47286 23.3649) rotate(-9.53101) scale(46.0706 27.9645)">
<stop stop-color="#FED576"/>
<stop offset="0.263" stop-color="#F47133"/>
<stop offset="0.609" stop-color="#BC3081"/>
<stop offset="1" stop-color="#4C63D2"/>
</radialGradient>
</defs>
</svg>
